<svg width="21" height="18" viewBox="0 0 21 18" fill="none" xmlns="http://www.w3.org/2000/svg">
<path d="M20.9543 4.05809L18.512 12.4481C18.3293 13.0456 17.85 13.444 17.2793 13.444H7.85217C7.30435 13.444 6.77935 13.0705 6.59674 12.5228L2.99022 1.9917H0.913043C0.41087 1.9917 0 1.54357 0 0.995851C0 0.448133 0.41087 0 0.913043 0H3.62935C4.01739 0 4.35978 0.273859 4.49674 0.672199L8.21739 11.4523H16.8913L18.8315 4.73029H8.08044C7.57826 4.73029 7.16739 4.28216 7.16739 3.73444C7.16739 3.18672 7.57826 2.73859 8.08044 2.73859H20.087C20.3837 2.73859 20.6576 2.91286 20.8174 3.16183C21 3.41079 21.0457 3.75934 20.9543 4.05809ZM8.3087 14.7635C7.92065 14.7635 7.53261 14.9378 7.2587 15.2365C6.98478 15.5353 6.825 15.9585 6.825 16.3817C6.825 16.805 6.98478 17.2282 7.2587 17.527C7.53261 17.8257 7.92065 18 8.3087 18C8.69674 18 9.08478 17.8257 9.3587 17.527C9.63261 17.2282 9.79239 16.805 9.79239 16.3817C9.79239 15.9585 9.63261 15.5353 9.3587 15.2365C9.08478 14.9378 8.69674 14.7635 8.3087 14.7635ZM16.5033 14.7635C16.1152 14.7635 15.7272 14.9378 15.4533 15.2365C15.1793 15.5353 15.0196 15.9585 15.0196 16.3817C15.0196 16.805 15.1793 17.2282 15.4533 17.527C15.7272 17.8257 16.1152 18 16.5033 18C16.8913 18 17.2793 17.8257 17.5533 17.527C17.8272 17.2282 17.987 16.805 17.987 16.3817C17.987 15.9585 17.8272 15.5353 17.5533 15.2365C17.2793 14.9378 16.8913 14.7635 16.5033 14.7635Z" fill="#7AB74A"/>
</svg>
