<svg width="23" height="23" viewBox="0 0 23 23" fill="none" xmlns="http://www.w3.org/2000/svg">
<path d="M18.5769 0H4.42308C3.25 0 2.12498 0.466001 1.29549 1.29549C0.466001 2.12498 0 3.25 0 4.42308V18.5769C0 19.75 0.466001 20.875 1.29549 21.7045C2.12498 22.534 3.25 23 4.42308 23H11.5C11.7346 23 11.9596 22.9068 12.1255 22.7409C12.2914 22.575 12.3846 22.35 12.3846 22.1154V15.0385C12.3846 14.8038 12.2914 14.5788 12.1255 14.4129C11.9596 14.247 11.7346 14.1538 11.5 14.1538H10.6154V12.3846H11.5C11.7346 12.3846 11.9596 12.2914 12.1255 12.1255C12.2914 11.9596 12.3846 11.7346 12.3846 11.5V8.40385C12.3846 7.81731 12.6176 7.2548 13.0324 6.84005C13.4471 6.42531 14.0096 6.19231 14.5962 6.19231H16.8077V7.96154H15.9231C15.4538 7.96154 15.0038 8.14794 14.672 8.47973C14.3402 8.81153 14.1538 9.26154 14.1538 9.73077V11.5C14.1538 11.7346 14.247 11.9596 14.4129 12.1255C14.5788 12.2914 14.8038 12.3846 15.0385 12.3846H16.56L16.1177 14.1538H15.0385C14.8038 14.1538 14.5788 14.247 14.4129 14.4129C14.247 14.5788 14.1538 14.8038 14.1538 15.0385V18.5769C14.1538 18.8115 14.247 19.0365 14.4129 19.2024C14.5788 19.3683 14.8038 19.4615 15.0385 19.4615C15.2731 19.4615 15.4981 19.3683 15.664 19.2024C15.8299 19.0365 15.9231 18.8115 15.9231 18.5769V15.9231H16.8077C17.0098 15.929 17.2078 15.8655 17.3687 15.7431C17.5297 15.6208 17.6439 15.447 17.6923 15.2508L18.5769 11.7123C18.6101 11.5817 18.6129 11.4453 18.5853 11.3135C18.5577 11.1817 18.5004 11.0579 18.4177 10.9515C18.3317 10.8425 18.2212 10.7552 18.0951 10.6968C17.9691 10.6384 17.8311 10.6105 17.6923 10.6154H15.9231V9.73077H17.6923C17.9269 9.73077 18.1519 9.63757 18.3178 9.47167C18.4837 9.30577 18.5769 9.08077 18.5769 8.84615V5.30769C18.5769 5.07308 18.4837 4.84807 18.3178 4.68217C18.1519 4.51628 17.9269 4.42308 17.6923 4.42308H14.5962C13.5411 4.42541 12.5299 4.84557 11.7839 5.5916C11.0379 6.33763 10.6177 7.3488 10.6154 8.40385V10.6154H9.73077C9.49615 10.6154 9.27115 10.7086 9.10525 10.8745C8.93935 11.0404 8.84615 11.2654 8.84615 11.5V15.0385C8.84615 15.2731 8.93935 15.4981 9.10525 15.664C9.27115 15.8299 9.49615 15.9231 9.73077 15.9231H10.6154V21.2308H4.42308C3.71923 21.2308 3.04422 20.9512 2.54652 20.4535C2.04883 19.9558 1.76923 19.2808 1.76923 18.5769V4.42308C1.76923 3.71923 2.04883 3.04422 2.54652 2.54652C3.04422 2.04883 3.71923 1.76923 4.42308 1.76923H18.5769C19.2808 1.76923 19.9558 2.04883 20.4535 2.54652C20.9512 3.04422 21.2308 3.71923 21.2308 4.42308V18.5769C21.2308 19.2808 20.9512 19.9558 20.4535 20.4535C19.9558 20.9512 19.2808 21.2308 18.5769 21.2308H15.0385C14.8038 21.2308 14.5788 21.324 14.4129 21.4899C14.247 21.6558 14.1538 21.8808 14.1538 22.1154C14.1538 22.35 14.247 22.575 14.4129 22.7409C14.5788 22.9068 14.8038 23 15.0385 23H18.5769C19.75 23 20.875 22.534 21.7045 21.7045C22.534 20.875 23 19.75 23 18.5769V4.42308C23 3.25 22.534 2.12498 21.7045 1.29549C20.875 0.466001 19.75 0 18.5769 0V0Z" fill="#5CA720"/>
</svg>
