<svg width="35" height="21" viewBox="0 0 35 21" fill="none" xmlns="http://www.w3.org/2000/svg">
<path d="M35 10.5C35 16.2778 30.3333 21 24.5 21C18.7222 21 14 16.2778 14 10.5C14 4.72222 18.6667 0 24.4444 0C30.3333 0 35 4.72222 35 10.5Z" fill="#FFB600"/>
<path d="M24.5 0C30.2778 0 35 4.72222 35 10.5C35 16.2778 30.3333 21 24.5 21C18.7222 21 14 16.2778 14 10.5" fill="#F7981D"/>
<path d="M24.5 0C30.2778 0 35 4.72222 35 10.5C35 16.2778 30.3333 21 24.5 21" fill="#FF8500"/>
<path d="M10.3889 0C4.66667 0.0555555 0 4.72222 0 10.5C0 16.2778 4.66667 21 10.5 21C13.2222 21 15.6667 19.9444 17.5556 18.2778C17.9444 17.9444 18.2778 17.5556 18.6111 17.1667H16.4444C16.1667 16.8333 15.8889 16.4444 15.6667 16.1111H19.3889C19.6111 15.7778 19.8333 15.3889 20 15H15.0556C14.8889 14.6667 14.7222 14.2778 14.6111 13.8889H20.3889C20.7222 12.8333 20.9444 11.7222 20.9444 10.5556C20.9444 9.77778 20.8333 9.05555 20.7222 8.33333H14.2778C14.3333 7.94444 14.4444 7.61111 14.5556 7.22222H20.3333C20.2222 6.83333 20.0556 6.44444 19.8889 6.11111H15C15.1667 5.72222 15.3889 5.38889 15.6111 5H19.3333C19.1111 4.61111 18.8333 4.22222 18.5 3.88889H16.4444C16.7778 3.5 17.1111 3.16667 17.5 2.83333C15.6667 1.11111 13.1667 0.111111 10.4444 0.111111C10.4444 -1.07619e-07 10.4444 0 10.3889 0V0Z" fill="#FF5050"/>
<path d="M0 10.5C0 16.2777 4.66667 21 10.5 21C13.2222 21 15.6667 19.9444 17.5556 18.2777C17.9444 17.9444 18.2778 17.5555 18.6111 17.1666H16.4444C16.1667 16.8333 15.8889 16.4444 15.6667 16.1111H19.3889C19.6111 15.7777 19.8333 15.3889 20 15H15.0556C14.8889 14.6666 14.7222 14.2777 14.6111 13.8889H20.3889C20.7222 12.8333 20.9444 11.7222 20.9444 10.5555C20.9444 9.77775 20.8333 9.05553 20.7222 8.3333H14.2778C14.3333 7.94442 14.4444 7.61108 14.5556 7.22219H20.3333C20.2222 6.83331 20.0556 6.44442 19.8889 6.11108H15C15.1667 5.72219 15.3889 5.38886 15.6111 4.99997H19.3333C19.1111 4.61108 18.8333 4.22219 18.5 3.88886H16.4444C16.7778 3.49997 17.1111 3.16664 17.5 2.83331C15.6667 1.11108 13.1667 0.111084 10.4444 0.111084H10.3889" fill="#E52836"/>
<path d="M10.5 21C13.2222 21 15.6667 19.9444 17.5555 18.2777C17.9444 17.9444 18.2778 17.5555 18.6111 17.1666H16.4444C16.1667 16.8333 15.8889 16.4444 15.6667 16.1111H19.3889C19.6111 15.7777 19.8333 15.3889 20 15H15.0556C14.8889 14.6666 14.7222 14.2777 14.6111 13.8889H20.3889C20.7222 12.8333 20.9444 11.7222 20.9444 10.5555C20.9444 9.77775 20.8333 9.05553 20.7222 8.3333H14.2778C14.3333 7.94442 14.4444 7.61108 14.5556 7.22219H20.3333C20.2222 6.83331 20.0555 6.44442 19.8889 6.11108H15C15.1667 5.72219 15.3889 5.38886 15.6111 4.99997H19.3333C19.1111 4.61108 18.8333 4.22219 18.5 3.88886H16.4444C16.7778 3.49997 17.1111 3.16664 17.5 2.83331C15.6667 1.11108 13.1667 0.111084 10.4444 0.111084H10.3889" fill="#CB2026"/>
<path d="M14.2222 13.1667L14.3889 12.2223C14.3333 12.2223 14.2222 12.2778 14.1111 12.2778C13.7222 12.2778 13.6667 12.0556 13.7222 11.9445L14.0556 10.0001H14.6667L14.8333 8.9445H14.2778L14.3889 8.27783H13.2778C13.2778 8.27783 12.6111 11.9445 12.6111 12.3889C12.6111 13.0556 13 13.3334 13.5 13.3334C13.8333 13.3334 14.1111 13.2223 14.2222 13.1667V13.1667Z" fill="white"/>
<path d="M14.6111 11.389C14.6111 12.9445 15.6666 13.3334 16.5555 13.3334C17.3889 13.3334 17.7222 13.1668 17.7222 13.1668L17.9444 12.1112C17.9444 12.1112 17.3333 12.389 16.7778 12.389C15.5555 12.389 15.7778 11.5001 15.7778 11.5001H18.0555C18.0555 11.5001 18.2222 10.7779 18.2222 10.5001C18.2222 9.77788 17.8333 8.88899 16.6111 8.88899C15.4444 8.77788 14.6111 10.0001 14.6111 11.389V11.389ZM16.5555 9.77788C17.1666 9.77788 17.0555 10.5001 17.0555 10.5557H15.8333C15.8333 10.5001 15.9444 9.77788 16.5555 9.77788Z" fill="white"/>
<path d="M23.6111 13.1667L23.8333 11.9445C23.8333 11.9445 23.2778 12.2223 22.8889 12.2223C22.1111 12.2223 21.7778 11.6112 21.7778 10.9445C21.7778 9.61116 22.4444 8.88894 23.2222 8.88894C23.7778 8.88894 24.2222 9.22228 24.2222 9.22228L24.3889 8.05561C24.3889 8.05561 23.7222 7.77783 23.1111 7.77783C21.8333 7.77783 20.5555 8.88894 20.5555 11.0001C20.5555 12.3889 21.2222 13.3334 22.5555 13.3334C23 13.3334 23.6111 13.1667 23.6111 13.1667V13.1667Z" fill="white"/>
<path d="M8.11111 8.77783C7.33333 8.77783 6.77778 9.00005 6.77778 9.00005L6.61111 9.9445C6.61111 9.9445 7.11111 9.72228 7.83333 9.72228C8.22222 9.72228 8.55555 9.77783 8.55555 10.1112C8.55555 10.3334 8.5 10.3889 8.5 10.3889H8C7.05556 10.3889 6 10.7778 6 12.0556C6 13.0556 6.66667 13.2778 7.05556 13.2778C7.83333 13.2778 8.16667 12.7778 8.22222 12.7778L8.16667 13.2223H9.16667L9.61111 10.1667C9.61111 8.83339 8.5 8.77783 8.11111 8.77783V8.77783ZM8.33333 11.2778C8.33333 11.4445 8.22222 12.3334 7.55556 12.3334C7.22222 12.3334 7.11111 12.0556 7.11111 11.8889C7.11111 11.6112 7.27778 11.2223 8.11111 11.2223C8.27778 11.2778 8.33333 11.2778 8.33333 11.2778Z" fill="white"/>
<path d="M10.6667 13.2778C10.9444 13.2778 12.3333 13.3334 12.3333 11.8334C12.3333 10.4445 11 10.7223 11 10.1667C11 9.88896 11.2222 9.77785 11.6111 9.77785C11.7778 9.77785 12.3889 9.8334 12.3889 9.8334L12.5556 8.8334C12.5556 8.8334 12.1667 8.72229 11.5 8.72229C10.6667 8.72229 9.83333 9.05562 9.83333 10.1667C9.83333 11.4445 11.2222 11.3334 11.2222 11.8334C11.2222 12.1667 10.8333 12.2223 10.5556 12.2223C10.0556 12.2223 9.55555 12.0556 9.55555 12.0556L9.38889 13.0556C9.44444 13.1667 9.72222 13.2778 10.6667 13.2778V13.2778Z" fill="white"/>
<path d="M32.8333 7.88892L32.6111 9.38892C32.6111 9.38892 32.1667 8.83336 31.5555 8.83336C30.5555 8.83336 29.6667 10.0556 29.6667 11.5C29.6667 12.3889 30.1111 13.3334 31.0555 13.3334C31.7222 13.3334 32.1111 12.8889 32.1111 12.8889L32.0555 13.2778H33.1667L34 7.94447L32.8333 7.88892V7.88892ZM32.3333 10.8334C32.3333 11.4445 32.0555 12.2222 31.4444 12.2222C31.0555 12.2222 30.8333 11.8889 30.8333 11.3334C30.8333 10.4445 31.2222 9.88892 31.7222 9.88892C32.1111 9.88892 32.3333 10.1667 32.3333 10.8334Z" fill="white"/>
<path d="M2.05552 13.2222L2.72219 9.22225L2.8333 13.2222H3.61108L5.05552 9.22225L4.44441 13.2222H5.61108L6.49997 7.88892H4.66663L3.55552 11.1667L3.49997 7.88892H1.88886L0.999969 13.2222H2.05552V13.2222Z" fill="white"/>
<path d="M19.2778 13.2222C19.6111 11.3889 19.6667 9.88892 20.4444 10.1667C20.5555 9.44447 20.7222 9.16669 20.8333 8.88892H20.6111C20.1111 8.88892 19.7222 9.55558 19.7222 9.55558L19.8333 8.94447H18.7778L18.0555 13.2778H19.2778V13.2222Z" fill="white"/>
<path d="M26.1667 8.77783C25.3889 8.77783 24.8333 9.00005 24.8333 9.00005L24.6667 9.9445C24.6667 9.9445 25.1667 9.72228 25.8889 9.72228C26.2778 9.72228 26.6111 9.77783 26.6111 10.1112C26.6111 10.3334 26.5555 10.3889 26.5555 10.3889H26.0555C25.1111 10.3889 24.0555 10.7778 24.0555 12.0556C24.0555 13.0556 24.7222 13.2778 25.1111 13.2778C25.8889 13.2778 26.2222 12.7778 26.2778 12.7778L26.2222 13.2223H27.2222L27.6667 10.1667C27.7222 8.83339 26.5555 8.77783 26.1667 8.77783V8.77783ZM26.4444 11.2778C26.4444 11.4445 26.3333 12.3334 25.6667 12.3334C25.3333 12.3334 25.2222 12.0556 25.2222 11.8889C25.2222 11.6112 25.3889 11.2223 26.2222 11.2223C26.3889 11.2778 26.3889 11.2778 26.4444 11.2778Z" fill="white"/>
<path d="M28.6111 13.2222C28.9444 11.3889 29 9.88892 29.7778 10.1667C29.8889 9.44447 30.0556 9.16669 30.1667 8.88892H29.9444C29.4444 8.88892 29.0556 9.55558 29.0556 9.55558L29.1667 8.94447H28.1111L27.3889 13.2778H28.6111V13.2222Z" fill="white"/>
<path d="M12.5 12.3889C12.5 13.0556 12.8889 13.3334 13.3889 13.3334C13.7777 13.3334 14.1111 13.2223 14.2222 13.1667L14.3889 12.2223C14.3333 12.2223 14.2222 12.2778 14.1111 12.2778C13.7222 12.2778 13.6666 12.0556 13.7222 11.9445L14.0555 10.0001H14.6666L14.8333 8.9445H14.2777L14.3889 8.27783" fill="#DCE5E5"/>
<path d="M15.1666 11.3889C15.1666 12.9444 15.6666 13.3333 16.5555 13.3333C17.3888 13.3333 17.7222 13.1666 17.7222 13.1666L17.9444 12.1111C17.9444 12.1111 17.3333 12.3889 16.7777 12.3889C15.5555 12.3889 15.7777 11.5 15.7777 11.5H18.0555C18.0555 11.5 18.2222 10.7778 18.2222 10.5C18.2222 9.77776 17.8333 8.88887 16.6111 8.88887C15.4444 8.77776 15.1666 9.99998 15.1666 11.3889V11.3889ZM16.5555 9.77776C17.1666 9.77776 17.2777 10.5 17.2777 10.5555H15.8333C15.8333 10.5 15.9444 9.77776 16.5555 9.77776Z" fill="#DCE5E5"/>
<path d="M23.6111 13.1667L23.8333 11.9445C23.8333 11.9445 23.2778 12.2223 22.8889 12.2223C22.1111 12.2223 21.7778 11.6112 21.7778 10.9445C21.7778 9.61116 22.4444 8.88894 23.2222 8.88894C23.7777 8.88894 24.2222 9.22228 24.2222 9.22228L24.3889 8.05561C24.3889 8.05561 23.7222 7.77783 23.1111 7.77783C21.8333 7.77783 21.1111 8.88894 21.1111 11.0001C21.1111 12.3889 21.2222 13.3334 22.5555 13.3334C23 13.3334 23.6111 13.1667 23.6111 13.1667V13.1667Z" fill="#DCE5E5"/>
<path d="M6.61108 10C6.61108 10 7.11108 9.7778 7.8333 9.7778C8.22219 9.7778 8.55552 9.83336 8.55552 10.1667C8.55552 10.3889 8.49997 10.4445 8.49997 10.4445H7.99997C7.05552 10.4445 5.99997 10.8334 5.99997 12.1111C5.99997 13.1111 6.66664 13.3334 7.05552 13.3334C7.8333 13.3334 8.16664 12.8334 8.22219 12.8334L8.16664 13.2778H9.16664L9.61108 10.2222C9.61108 8.94447 8.49997 8.88892 8.05552 8.88892M8.88886 11.2778C8.88886 11.4445 8.22219 12.3334 7.55552 12.3334C7.22219 12.3334 7.11108 12.0556 7.11108 11.8889C7.11108 11.6111 7.27775 11.2222 8.11108 11.2222C8.27775 11.2778 8.88886 11.2778 8.88886 11.2778Z" fill="#DCE5E5"/>
<path d="M9.44443 13.1666C9.44443 13.1666 9.77776 13.2777 10.7222 13.2777C11 13.2777 12.3889 13.3333 12.3889 11.8333C12.3889 10.4444 11.0555 10.7222 11.0555 10.1666C11.0555 9.88883 11.2778 9.77772 11.6666 9.77772C11.8333 9.77772 12.4444 9.83328 12.4444 9.83328L12.6111 8.83328C12.6111 8.83328 12.2222 8.72217 11.5555 8.72217C10.7222 8.72217 10.4444 9.0555 10.4444 10.1666C10.4444 11.4444 11.2778 11.3333 11.2778 11.8333C11.2778 12.1666 10.8889 12.2222 10.6111 12.2222" fill="#DCE5E5"/>
<path d="M32.6111 9.3889C32.6111 9.3889 32.1666 8.83335 31.5555 8.83335C30.5555 8.83335 30.2222 10.0556 30.2222 11.5C30.2222 12.3889 30.1111 13.3333 31.0555 13.3333C31.7222 13.3333 32.1111 12.8889 32.1111 12.8889L32.0555 13.2778H33.1666L33.9999 7.94446M32.5555 10.8333C32.5555 11.4445 32.0555 12.2222 31.4444 12.2222C31.0555 12.2222 30.8333 11.8889 30.8333 11.3333C30.8333 10.4445 31.2222 9.8889 31.7222 9.8889C32.1111 9.8889 32.5555 10.1667 32.5555 10.8333Z" fill="#DCE5E5"/>
<path d="M2.05552 13.2221L2.72219 9.22213L2.8333 13.2221H3.61108L5.05552 9.22213L4.44441 13.2221H5.61108L6.49997 7.88879H5.11108L3.55552 11.1666L3.49997 7.88879H2.88886L0.999969 13.2221H2.05552Z" fill="#DCE5E5"/>
<path d="M18.1111 13.2222H19.2778C19.6111 11.3889 19.6666 9.88892 20.4444 10.1667C20.5555 9.44447 20.7222 9.16669 20.8333 8.88892H20.6111C20.1111 8.88892 19.7222 9.55558 19.7222 9.55558L19.8333 8.94447" fill="#DCE5E5"/>
<path d="M24.6667 10C24.6667 10 25.1667 9.7778 25.8889 9.7778C26.2778 9.7778 26.6111 9.83336 26.6111 10.1667C26.6111 10.3889 26.5555 10.4445 26.5555 10.4445H26.0555C25.1111 10.4445 24.0555 10.8334 24.0555 12.1111C24.0555 13.1111 24.7222 13.3334 25.1111 13.3334C25.8889 13.3334 26.2222 12.8334 26.2778 12.8334L26.2222 13.2778H27.2222L27.6667 10.2222C27.6667 8.94447 26.5555 8.88892 26.1111 8.88892M26.9444 11.2778C26.9444 11.4445 26.2778 12.3334 25.6111 12.3334C25.2778 12.3334 25.1667 12.0556 25.1667 11.8889C25.1667 11.6111 25.3333 11.2222 26.1667 11.2222C26.3889 11.2778 26.9444 11.2778 26.9444 11.2778Z" fill="#DCE5E5"/>
<path d="M27.4444 13.2222H28.6111C28.9444 11.3889 29 9.88892 29.7778 10.1667C29.8889 9.44447 30.0555 9.16669 30.1666 8.88892H29.9444C29.4444 8.88892 29.0555 9.55558 29.0555 9.55558L29.1666 8.94447" fill="#DCE5E5"/>
</svg>
