<svg width="18" height="21" viewBox="0 0 18 21" fill="none" xmlns="http://www.w3.org/2000/svg">
<path d="M15.9056 6.43233L4.61162 18.7562H0.469149C0.181478 18.7562 -0.0486589 18.4685 0.0088753 18.1808L2.77052 0.690411C2.82805 0.287671 3.17326 0 3.576 0H10.5952C15.4281 0.172603 16.7513 2.64658 15.8883 6.44384L15.9056 6.43233Z" fill="#002C8A"/>
<path d="M16.0897 5.29309C17.8157 6.21364 18.2185 7.93967 17.6431 10.241C16.8952 13.6356 14.6513 15.0739 11.3719 15.1314L10.4513 15.189C10.1061 15.189 9.87601 15.4191 9.81847 15.7643L9.07053 20.3095C9.01299 20.7123 8.66779 20.9999 8.26505 20.9999H4.81299C4.52532 20.9999 4.29518 20.7123 4.35272 20.4246L5.61847 12.1972C5.676 11.9095 16.0897 5.29309 16.0897 5.29309Z" fill="#009BE1"/>
<path d="M5.54944 12.6L6.70012 5.29316C6.73787 5.12011 6.8316 4.96433 6.96681 4.84992C7.10201 4.73551 7.27116 4.66886 7.44807 4.66028H12.9714C14.2946 4.66028 15.2727 4.89042 16.0782 5.29316C15.7905 7.82466 14.5823 11.9096 8.71382 12.0247H6.18232C5.89464 12.0247 5.60697 12.2548 5.54944 12.6Z" fill="#001F6B"/>
</svg>
