<svg width="18" height="18" viewBox="0 0 18 18" fill="none" xmlns="http://www.w3.org/2000/svg">
<path fill-rule="evenodd" clip-rule="evenodd" d="M4.20053 6.48019C4.20053 3.6966 6.3493 1.44004 8.99995 1.44004C11.6506 1.44004 13.7994 3.6966 13.7994 6.48019C13.7994 9.26377 11.6506 11.5203 9 11.5203C8.99998 11.5203 8.99996 11.5203 8.99995 11.5203C6.3493 11.5203 4.20053 9.26379 4.20053 6.48019ZM12.1648 12.0443C13.9653 10.9124 15.1706 8.84413 15.1706 6.48019C15.1706 2.90128 12.4079 0 8.99995 0C5.59198 0 2.82927 2.90128 2.82927 6.48019C2.82927 8.84413 4.0346 10.9124 5.83506 12.0443C5.14961 12.277 4.48654 12.5857 3.85746 12.967C2.29382 13.9147 0.995209 15.2778 0.0920704 16.9195C-0.0973559 17.2638 0.0148808 17.7042 0.342758 17.9031C0.670635 18.1021 1.08999 17.9842 1.27942 17.6399C2.06218 16.217 3.1877 15.0356 4.54291 14.2142C5.8981 13.3928 7.43525 12.9604 8.99995 12.9604C8.99998 12.9604 9.00001 12.9604 9.00004 12.9604C10.5648 12.9604 12.102 13.3928 13.4571 14.2143C14.8123 15.0357 15.9378 16.2172 16.7206 17.64C16.91 17.9844 17.3293 18.1022 17.6572 17.9033C17.9851 17.7044 18.0974 17.264 17.9079 16.9197C17.0048 15.278 15.7062 13.9148 14.1426 12.9671C13.5135 12.5857 12.8504 12.277 12.1648 12.0443Z" fill="#7AB74A"/>
</svg>
