<svg width="36" height="11" viewBox="0 0 36 11" fill="none" xmlns="http://www.w3.org/2000/svg">
<path d="M21.2573 8.435C20.1403 8.435 19.5278 8.28187 18.5871 7.89541L18.2386 7.73646L17.8434 10.0333C18.523 10.3133 19.748 10.554 21.0153 10.5729C23.9917 10.5729 25.9371 9.19187 25.9605 7.06708C25.9838 5.89896 25.2167 5.01229 23.5965 4.28167C22.6136 3.80771 22.0011 3.48979 22.0011 3.00854C22.0011 2.58271 22.5246 2.12916 23.6184 2.12916C24.559 2.11458 25.2167 2.31437 25.7403 2.52146L26.0028 2.63812L26.398 0.418541L26.3294 0.433125C25.765 0.223125 24.8857 0 23.7919 0C20.9919 0 19.0159 1.39125 19.0013 3.38479C18.9838 4.85041 20.4071 5.67583 21.4819 6.16729C22.5859 6.67041 22.9548 6.98687 22.9519 7.43896C22.9446 8.12583 22.0696 8.435 21.2573 8.435ZM33.5963 0.188125H31.4088C30.7278 0.188125 30.2188 0.370416 29.9198 1.03833L25.7125 10.43H28.689L29.284 8.89291L32.9153 8.89583C33.0042 9.25458 33.2653 10.43 33.2653 10.43H35.8888L33.5963 0.188125ZM30.0992 6.79146L31.228 3.92875C31.2134 3.95791 31.4613 3.33666 31.6042 2.95166L31.7982 3.83541L32.453 6.79146H30.0992Z" fill="#191E6E"/>
<path d="M13.2029 10.3484H16.0379L17.8098 0.10216H14.9763V0.0992432L13.2029 10.3484Z" fill="#191E6E"/>
<path d="M8.06817 7.17216L7.77358 5.74882V5.7532L6.779 1.04862C6.60838 0.396742 6.10963 0.204242 5.49129 0.180908H0.925252L0.888794 0.396741C1.91692 0.637366 2.84296 0.985908 3.67129 1.4132C3.82004 1.50507 3.88275 1.6057 3.93379 1.75445L6.38379 10.4155H9.37921L13.8432 0.1882H10.8405L8.06817 7.17216Z" fill="#191E6E"/>
</svg>
